<svg viewBox="0 0 24 24" version="1.1" xml:space="preserve" xmlns="http://www.w3.org/2000/svg" xmlns:xlink="http://www.w3.org/1999/xlink" fill="#000000"><g id="SVGRepo_bgCarrier" stroke-width="0"></g><g id="SVGRepo_tracerCarrier" stroke-linecap="round" stroke-linejoin="round"></g><g id="SVGRepo_iconCarrier"> <style type="text/css"> .st0{display:none;} .st1{display:inline;} .st2{opacity:0.2;fill:none;stroke:#000000;stroke-width:5.000000e-02;stroke-miterlimit:10;} </style> <g class="st0" id="grid_system"></g> <g id="_icons"> <path d="M2,14.5c0,1.6,0.9,3.1,2.2,3.9l-0.9,0.9c-0.4,0.4-0.4,1,0,1.4C3.5,20.9,3.7,21,4,21s0.5-0.1,0.7-0.3l14-14 c0.4-0.4,0.4-1,0-1.4s-1-0.4-1.4,0l-1.8,1.8C14.9,7,14.3,7,13.8,7c-0.1-0.2-0.3-0.3-0.4-0.4C12.4,5.6,11,5,9.5,5S6.6,5.6,5.6,6.6 C4.6,7.6,4,9,4,10.5c0,0.1,0,0.2,0,0.3c-0.2,0.2-0.5,0.3-0.7,0.6C2.5,12.2,2,13.3,2,14.5z M4.7,12.7c0.2-0.2,0.5-0.4,0.7-0.5 c0.4-0.2,0.7-0.6,0.6-1.1C6,10.9,6,10.7,6,10.5C6,9.6,6.4,8.7,7,8c1.3-1.3,3.6-1.3,4.9,0c0.2,0.2,0.4,0.4,0.5,0.7 c0.2,0.3,0.6,0.5,1,0.4l-7.7,7.7c-1-0.3-1.7-1.3-1.7-2.4C4,13.8,4.3,13.2,4.7,12.7z"></path> <path d="M19.6,10.6c-0.2-0.4-0.4-0.8-0.6-1.2c-0.3-0.5-0.9-0.6-1.4-0.3c-0.5,0.3-0.6,0.9-0.3,1.4c0.2,0.3,0.4,0.7,0.5,1 c0.1,0.3,0.3,0.5,0.6,0.7c0.9,0.4,1.5,1.3,1.5,2.3c0,0.7-0.3,1.3-0.7,1.8c-0.5,0.5-1.1,0.7-1.8,0.7H10c-0.6,0-1,0.4-1,1s0.4,1,1,1 h7.5c1.2,0,2.3-0.5,3.2-1.3c0.9-0.8,1.3-2,1.3-3.2C22,12.8,21.1,11.3,19.6,10.6z"></path> </g> </g></svg>