<svg fill="#000000" viewBox="0 0 24 24" xmlns="http://www.w3.org/2000/svg"><g id="SVGRepo_bgCarrier" stroke-width="0"></g><g id="SVGRepo_tracerCarrier" stroke-linecap="round" stroke-linejoin="round"></g><g id="SVGRepo_iconCarrier"><path d="M22.951,11.259a.919.919,0,0,0-.057-.189c-.007-.014-.006-.03-.013-.044l-3.5-6.5a.913.913,0,0,0-.142-.187A.989.989,0,0,0,18.5,4H13V2a1,1,0,0,0-2,0V4H5.5a.989.989,0,0,0-.739.339.913.913,0,0,0-.142.187l-3.5,6.5c-.007.014-.006.03-.013.044a.91.91,0,0,0-.057.188.98.98,0,0,0-.04.2c0,.015-.009.028-.009.044a4.5,4.5,0,0,0,9,0c0-.016-.008-.029-.009-.044a.97.97,0,0,0-.04-.2.919.919,0,0,0-.057-.189c-.007-.014-.006-.03-.013-.044L7.174,6H11V18H8a1,1,0,0,0,0,2h8a1,1,0,0,0,0-2H13V6h3.826l-2.707,5.026c-.007.014-.006.03-.013.044a.91.91,0,0,0-.057.188.98.98,0,0,0-.04.2c0,.015-.009.028-.009.044a4.5,4.5,0,0,0,9,0c0-.016-.008-.029-.009-.044A.97.97,0,0,0,22.951,11.259ZM5.5,14a2.5,2.5,0,0,1-2.291-1.5H7.791A2.5,2.5,0,0,1,5.5,14Zm1.826-3.5H3.674L5.5,7.109ZM18.5,7.109,20.326,10.5H16.674ZM18.5,14a2.5,2.5,0,0,1-2.291-1.5h4.582A2.5,2.5,0,0,1,18.5,14ZM21,22a1,1,0,0,1-1,1H4a1,1,0,0,1,0-2H20A1,1,0,0,1,21,22Z"></path></g></svg>