<svg viewBox="0 0 24 24" xmlns="http://www.w3.org/2000/svg"><g stroke-width="0"/><g stroke-linecap="round" stroke-linejoin="round"/><path d="M22.951 11.259a1 1 0 0 0-.057-.189c-.007-.014-.006-.03-.013-.044l-3.5-6.5a1 1 0 0 0-.142-.187A1 1 0 0 0 18.5 4H13V2a1 1 0 0 0-2 0v2H5.5a1 1 0 0 0-.739.339 1 1 0 0 0-.142.187l-3.5 6.5c-.007.014-.006.03-.013.044a1 1 0 0 0-.057.188 1 1 0 0 0-.04.2c0 .015-.009.028-.009.044a4.5 4.5 0 0 0 9 0c0-.016-.008-.029-.009-.044a1 1 0 0 0-.04-.2 1 1 0 0 0-.057-.189c-.007-.014-.006-.03-.013-.044L7.174 6H11v12H8a1 1 0 0 0 0 2h8a1 1 0 0 0 0-2h-3V6h3.826l-2.707 5.026c-.007.014-.006.03-.013.044a1 1 0 0 0-.057.188 1 1 0 0 0-.04.2c0 .015-.009.028-.009.044a4.5 4.5 0 0 0 9 0c0-.016-.008-.029-.009-.044a1 1 0 0 0-.04-.199M5.5 14a2.5 2.5 0 0 1-2.291-1.5h4.582A2.5 2.5 0 0 1 5.5 14m1.826-3.5H3.674L5.5 7.109ZM18.5 7.109l1.826 3.391h-3.652Zm0 6.891a2.5 2.5 0 0 1-2.291-1.5h4.582A2.5 2.5 0 0 1 18.5 14m2.5 8a1 1 0 0 1-1 1H4a1 1 0 0 1 0-2h16a1 1 0 0 1 1 1"/></svg>