<svg xmlns="http://www.w3.org/2000/svg" width="1000" height="1000" viewBox="0 0 1000 1000"><path d="M604 439.677c-29.774 4.816-53.258 17.115-73.5 38.493-21.563 22.774-32.792 51.307-32.791 83.33 0 20.416 3.125 33.938 12.248 53 10.484 21.907 26.15 39.013 47.194 51.532 8.358 4.972 10.535 5.887 9.316 3.915-.358-.579.282-1.862 1.423-2.852 1.14-.989 1.823-2.049 1.516-2.355s.437-.873 1.651-1.258c1.725-.548 1.905-.892.825-1.576-1.023-.648-.782-.879.927-.891 1.282-.008 2.034-.46 1.691-1.015-.34-.55-.141-1 .441-1s.947-.355.809-.788.996-2.037 2.519-3.564 2.49-3.228 2.149-3.78c-.34-.551.321-1.248 1.47-1.549s1.897-.859 1.661-1.24c-.236-.382.66-1.512 1.992-2.513s2.178-2.211 1.881-2.692.274-.881 1.269-.889c1.534-.013 1.581-.163.309-.985s-1.225-.972.309-.985c.995-.008 1.551-.433 1.235-.943s.333-1.216 1.441-1.567c1.108-.352 2.015-1.059 2.015-1.572 0-2.04.344-2.48 2.872-3.673 2.628-1.24 2.628-1.24.128-.745-2.461.488-2.465.478-.272-.653 1.225-.631 2.486-1.961 2.801-2.954s1.51-2.103 2.654-2.466c1.559-.495 1.752-.864.768-1.472q-1.31-.812 2.58-1.542l3.892-.73-3.961-1.174c-10.09-2.99-17.922-7.787-25.999-15.926-9.184-9.254-13.556-16.731-16.488-28.194-2.502-9.784-2.503-18.02-.003-27.795 5.153-20.148 19.328-35.852 38.596-42.759 7.202-2.582 23.193-3.568 31.932-1.97 3.3.604 9.786 2.961 14.414 5.239 10.411 5.123 19.986 14.3 26.061 24.978 2.317 4.072 3.887 6.503 3.49 5.403-1.751-4.847-1.628-6.121.705-7.342 1.281-.671 1.519-.986.528-.7-1.04.3-1.544.101-1.191-.469.336-.544 1.259-.989 2.052-.989s1.388-.337 1.323-.75c-.327-2.065.303-3.174 2.133-3.755 1.108-.351 1.756-1.057 1.441-1.567-.316-.51.24-.935 1.235-.943 1.534-.013 1.581-.163.309-.985-1.282-.828-1.246-.972.25-.985.962-.008 1.637-.396 1.5-.862-.138-.466 1.26-2.266 3.106-4 1.899-1.784 2.767-3.188 2-3.234-.746-.045-.006-.7 1.644-1.455s2.405-1.394 1.679-1.419c-.727-.025.349-1.62 2.39-3.545s3.166-3.5 2.499-3.5c-.798 0-.677-.533.353-1.564.86-.86 2.087-1.24 2.726-.845.689.426.893.283.501-.351-.363-.588-.241-1.22.271-1.405.512-.184 1.077-1.007 1.256-1.829s1.45-2.067 2.825-2.765c1.523-.775 1.719-1.046.5-.694-1.852.534-1.834.421.25-1.524 1.237-1.156 2.25-2.503 2.25-2.995 0-1.943 4.167-2.188 6.274-.368 1.172 1.012-.773-1.716-4.322-6.062-17.988-22.031-44.087-36.949-73.662-42.107-7.803-1.36-29.853-1.855-36.29-.814" fill="#071907" fill-rule="evenodd"/><path d="M102.5 37.779c-8.995.538-24.849 4.053-32.45 7.194-8.132 3.36-19.097 9.249-22.436 12.05-1.163.975-4.977 4.127-8.477 7.005-7.701 6.334-18.254 19.49-23.481 29.276-4.255 7.964-10.056 24.752-11.585 33.525-1.254 7.195-1.26 24.796-.011 32.859 1.964 12.679 10.189 33.56 16.542 41.995 1.319 1.751 2.398 3.467 2.398 3.813 0 .758 19.301 19.994 23.519 23.44 6.097 4.981 22.424 13.057 32.741 16.195 6.102 1.856 21.238 3.833 29.24 3.819 10.371-.018 25.537-2.268 32.5-4.823 3.025-1.11 7.454-2.73 9.843-3.6 2.389-.869 5.98-2.694 7.982-4.054s4.016-2.473 4.477-2.473c1.202 0 9.303-5.69 12.575-8.832a783 783 0 0 1 7.951-7.458c2.844-2.635 5.172-5.111 5.172-5.503s1.312-1.952 2.915-3.465c3.346-3.157 10.613-15.445 14.337-24.242 13.84-32.69 10.642-67.954-9.025-99.5-4.401-7.058-24.46-26.91-30.831-30.513-2.693-1.523-6.574-3.83-8.625-5.128-2.05-1.297-4.174-2.359-4.72-2.359s-3.379-1.092-6.298-2.427c-8.931-4.085-31.537-7.556-44.253-6.794M596 185.076c-7.975.42-19.675 1.701-26 2.847-6.325 1.147-13.3 2.329-15.5 2.628-6.798.924-29.548 6.553-38.7 9.576-4.785 1.58-9.302 2.873-10.038 2.873s-5.128 1.575-9.762 3.5-8.766 3.5-9.183 3.5-3.134 1.069-6.037 2.375a5314 5314 0 0 1-14.78 6.602c-11.491 5.113-27.313 13.45-37 19.496-1.925 1.201-6.425 3.919-10 6.038s-6.725 4.127-7 4.46-4.1 3.032-8.5 5.996-10.025 7.076-12.5 9.137-8.325 6.797-13 10.525c-18.219 14.524-34.707 31.25-50.23 50.953-3.468 4.402-7.317 9.089-8.553 10.416s-4.795 6.257-7.908 10.957-6.032 8.695-6.485 8.878c-.453.184-.824.724-.824 1.2 0 .477-1.35 2.867-3 5.312s-3 4.787-3 5.206c0 .418-1.096 2.197-2.436 3.954-3.378 4.429-22.564 42.996-22.564 45.358 0 .569-1.53 4.995-3.399 9.836-5.007 12.965-7.726 21.119-9.104 27.301-.675 3.025-2.427 9.889-3.894 15.253s-2.867 11.664-3.111 14-1.586 11.447-2.983 20.247c-2.53 15.938-3.722 31.639-5.504 72.5-.515 11.825-.952 98.119-.971 191.765L244 938.03l29.25-.265 29.25-.265.564-193c.409-139.937.893-195.887 1.76-203.5.658-5.775 1.815-15.45 2.57-21.5s1.397-12.125 1.426-13.5c.154-7.163 10.939-47.572 16.415-61.5 5.547-14.11 13.771-31.366 19.885-41.726 5.411-9.168 15.085-24.185 16.281-25.274.605-.55 4.996-6.175 9.76-12.5 15.932-21.156 34.199-38.858 59.533-57.691 14.214-10.568 21.439-15.363 33.806-22.438 6.153-3.52 31.538-15.927 37-18.085 9.619-3.799 20.461-7.786 21.171-7.786.424 0 5.06-1.314 10.3-2.921C562.377 247.066 587.896 243.5 623 243.5c41.232 0 69.029 5.097 111 20.352 11.643 4.232 33.061 14.953 51 25.528 7.586 4.472 29.233 19.932 36.49 26.061 9.576 8.086 34.121 32.432 40.323 39.993 3.128 3.814 6.624 7.864 7.768 9 2.766 2.745 16.419 22.37 16.419 23.601 0 .531.378.965.841.965s2.101 2.363 3.642 5.25 3.798 6.6 5.017 8.25c2.642 3.574 20.426 39.521 20.983 42.412.213 1.107 1.077 3.493 1.92 5.301 1.833 3.934 9.613 27.445 10.022 30.287.158 1.1 1.684 8.3 3.39 16 5.755 25.972 6.688 35.221 6.655 66-.032 30.685-1.975 50.178-6.929 69.5-1.339 5.225-2.693 10.98-3.009 12.788-.677 3.877-5.451 18.422-9.753 29.712-6.593 17.303-29.731 61.181-32.871 62.333-.499.184-.908.773-.908 1.309s-1.279 2.636-2.842 4.667-5.465 7.291-8.671 11.691c-7.47 10.253-46.531 49.309-56.987 56.98-4.4 3.229-10.345 7.633-13.212 9.787-7.315 5.498-29.735 19.042-39.788 24.035a2796 2796 0 0 0-7.692 3.839c-26.079 13.082-71.253 26.46-97.808 28.967-19.942 1.882-50.875 2.124-69 .54-34.349-3.001-62.088-10.759-92.237-25.796-7.555-3.769-14.192-6.852-14.75-6.852-.663 0-1.013 10.852-1.013 31.381 0 31.382 0 31.382 3.267 33.874 8.289 6.322 52.938 20.15 73.725 22.833 3.58.462 10.994 1.524 16.477 2.359 49.79 7.589 114.85.584 166.031-17.877 4.95-1.786 10.35-3.724 12-4.307 10.934-3.863 49.43-22.405 57.613-27.75 2.537-1.657 6.115-3.913 7.952-5.013s4.035-2.463 4.886-3.028c30.706-20.384 41.611-29.185 65.021-52.472 17.617-17.525 22.915-23.471 32.967-37 3.882-5.225 7.68-10.175 8.439-11s3.512-4.875 6.115-9 6.033-9.374 7.62-11.663c1.588-2.29 2.887-4.437 2.887-4.77 0-.334 1.228-2.51 2.729-4.837 1.5-2.326 3.909-6.48 5.352-9.23 7.44-14.174 10.895-21.078 10.906-21.792.007-.435 1.401-3.76 3.097-7.388s3.237-7.39 3.424-8.36.993-3.046 1.792-4.612c4.584-8.991 14.868-45.316 18.641-65.848 5.233-28.476 5.725-35.544 5.29-76-.342-31.79-2.65-49.694-10.438-81-3.832-15.4-14.391-47.472-18.767-57a8834 8834 0 0 0-8.988-19.5c-1.146-2.475-3.761-7.499-5.811-11.164s-4.791-8.615-6.091-11c-1.301-2.385-3.438-5.768-4.75-7.519S940 363.894 940 363.602c0-.293-2.449-4.261-5.442-8.817-18.653-28.398-42.805-56.02-68.558-78.408-10.076-8.759-15.687-13.155-33.5-26.246-2.2-1.616-6.475-4.406-9.5-6.199s-7.3-4.461-9.5-5.93c-6.828-4.557-39.872-21.964-41.747-21.991-.411-.006-3.605-1.361-7.097-3.011s-6.739-3-7.215-3-4.708-1.536-9.403-3.414C735.114 201.418 699.804 191 695.214 191c-1.251 0-8.449-1.155-15.995-2.567-20.659-3.866-50.622-5.075-83.219-3.357m4 76.058c-5.775.471-14.55 1.568-19.5 2.438s-11.925 2.011-15.5 2.535c-10.564 1.549-44.084 11.643-54.78 16.497-2.903 1.318-5.716 2.396-6.249 2.396-.534 0-3.108 1.097-5.72 2.437-2.613 1.34-9.026 4.546-14.251 7.125s-10.175 5.233-11 5.898-3.525 2.225-6 3.467-5.4 3.037-6.5 3.988-4.475 3.254-7.5 5.116c-6.224 3.831-10.524 7.059-24.602 18.469-14.01 11.355-23.387 20.427-33.594 32.5-4.882 5.775-10.05 11.85-11.483 13.5s-5.33 7.05-8.661 12-6.416 9.15-6.857 9.333c-.442.184-.803.737-.803 1.231 0 .493-1.463 3.275-3.25 6.18-5.461 8.878-15.75 28.53-15.75 30.083 0 .312-1.506 3.853-3.347 7.87-3.901 8.512-6.184 14.774-8.677 23.803a1303 1303 0 0 1-4.386 15.365c-1.426 4.876-2.787 10.726-3.025 13s-1.333 9.76-2.432 16.635-2.482 17.225-3.072 23c-2.108 20.608-3.069 98.753-3.065 249.25L320 938h65.859l.456-178.25c.387-151.096.695-180.916 2.024-195.75.862-9.625 1.59-22 1.618-27.5.053-10.376 1.843-23.648 4.586-34 .874-3.3 1.74-7.125 1.924-8.5s1.534-5.875 3.001-10 2.822-8.175 3.011-9c.298-1.304 4.626-11.047 9.107-20.5 1.412-2.979 5.417-10.132 9.03-16.126 4.943-8.201 15.862-23.62 17.051-24.076.733-.282 1.333-.99 1.333-1.574s7.538-8.523 16.75-17.643c23.605-23.367 40.252-34.661 73.75-50.035 7.496-3.441 26.511-9.801 34.738-11.62 20.492-4.53 25.637-5.328 41.994-6.513 15.485-1.122 20.237-1.074 37.5.378 24.879 2.093 49.076 7.988 67.04 16.331 3.999 1.858 7.565 3.378 7.924 3.378.917 0 16.282 7.96 19.304 10.001 1.375.929 5.425 3.416 9 5.526 3.575 2.111 6.725 4.109 7 4.439s3.624 2.809 7.443 5.507c18.94 13.378 41.65 36.69 54.581 56.027 1.839 2.75 3.624 5.225 3.966 5.5 1.922 1.546 21.01 38.061 21.01 40.192 0 .536 1.349 4.344 2.998 8.463s3.241 8.865 3.538 10.548 1.621 7.225 2.943 12.315 2.656 12.343 2.964 16.118 1.005 10.689 1.55 15.364c1.267 10.858 1.243 43.226-.038 53-.541 4.125-1.229 10.2-1.529 13.5s-1.702 10.275-3.114 15.5c-1.413 5.225-2.654 10.175-2.757 11-.306 2.433-2.586 9.181-4.642 13.739-1.052 2.332-1.913 4.902-1.913 5.711 0 3.925-21.431 43.407-24.092 44.383-.499.184-.908.743-.908 1.242 0 1.977-16.313 20.98-26.118 30.425-11.324 10.907-26.943 23.756-36.382 29.929a956 956 0 0 0-10.025 6.648c-4.413 2.987-28.023 15.242-35.975 18.674-19.872 8.576-44.992 14.881-65 16.314-38.081 2.728-72.292-2.558-105.5-16.298-15.155-6.271-42.449-20.286-49.693-25.517-6.611-4.774-6.36-6.172-6.069 33.897l.262 36.148 19.5 9.943c20.851 10.633 33.373 15.203 56.5 20.621 47.737 11.182 99.925 8.715 151-7.14 7.15-2.219 15.334-5.089 18.186-6.377s5.509-2.342 5.903-2.342c3.367 0 38.068-18.253 51.456-27.066 27.151-17.873 50.811-38.866 68.111-60.434 4.412-5.5 8.994-11.187 10.183-12.637 2.598-3.17 2.508-3.04 10.661-15.357 8.757-13.23 16.609-27.652 25.127-46.151 2.491-5.411 7.703-19.517 9.552-25.855.803-2.75 2.543-8.6 3.868-13 2.181-7.241 3.213-12.452 8.026-40.5.802-4.675 1.741-17.05 2.087-27.5.695-21.04-.325-34.665-4.232-56.5-1.328-7.425-2.669-15.075-2.978-17-.673-4.193-4.26-16.792-8.682-30.5-8.863-27.475-25.949-59.816-45.137-85.436-5.534-7.39-11.284-14.686-12.776-16.212-1.492-1.527-3.082-3.355-3.534-4.064-2.389-3.748-33.266-32.319-41.41-38.317a2970 2970 0 0 1-12.438-9.2c-4.518-3.388-24.908-16.122-27.069-16.906-1.047-.38-3.029-1.457-4.404-2.394s-6.775-3.612-12-5.944-11.3-5.063-13.5-6.068c-10.529-4.813-42.351-14.912-51.5-16.346-1.925-.301-8.9-1.452-15.5-2.558-23.744-3.978-43.101-4.828-66.5-2.921M32 617v325h65V292H32zm84 0v325h65V292h-65zm500.776-178.267c2.352.212 5.952.209 8-.006s.124-.388-4.276-.384c-4.4.003-6.076.179-3.724.39m-83.798 36.017-8.478 8.75 8.75-8.478c4.813-4.663 8.75-8.6 8.75-8.75 0-.728-1.148.351-9.022 8.478m185.098 12.993c2.012 2.277 2.054 2.431.246.91-2.154-1.812-6.322-1.564-6.322.375 0 .492-1.013 1.839-2.25 2.995-2.084 1.945-2.102 2.058-.25 1.524 1.219-.352 1.023-.081-.5.694-1.375.698-2.646 1.943-2.825 2.765s-.744 1.645-1.256 1.829c-.512.185-.634.817-.271 1.405.392.634.188.777-.501.351-.639-.395-1.866-.015-2.726.845-1.03 1.031-1.151 1.564-.353 1.564.667 0-.458 1.575-2.499 3.5s-3.117 3.52-2.39 3.545-.029.663-1.679 1.419c-1.65.755-2.39 1.41-1.644 1.455.767.046-.101 1.45-2 3.234-1.846 1.734-3.243 3.534-3.106 4 .138.466-.537.854-1.5.862-1.496.013-1.532.157-.25.985 1.272.822 1.225.972-.309.985-.995.008-1.551.433-1.235.943s-.333 1.216-1.441 1.567c-1.83.581-2.46 1.69-2.133 3.755.065.413-.53.75-1.323.75s-1.716.445-2.052.989c-.353.57.151.769 1.191.469.991-.286.753.029-.528.7-1.85.968-2.198 1.748-1.686 3.781.697 2.771 1.114 5.951 1.36 10.37.086 1.545.493 2.605.906 2.356 1.322-.799 1.438 15.563.168 23.835-2.719 17.717-14.401 34.187-29.602 41.733-3.951 1.961-6.889 3.86-6.53 4.219s-.195.328-1.231-.069c-1.074-.413-1.639-.328-1.315.197.313.506-.626.979-2.085 1.052s-5.693.727-9.407 1.454c-9.155 1.791-19.997.193-30.986-4.57-4.509-1.954-7.763-3.121-7.23-2.593.532.527 4.011 2.255 7.731 3.838s6.516 3.126 6.215 3.428c-.301.301.706.379 2.237.173 1.983-.266 1.633.03-1.215 1.028-2.2.77-3.325 1.478-2.5 1.573 1.011.116.773.523-.728 1.248-1.225.591-2.473 1.846-2.772 2.789s-1.547 2.231-2.772 2.862c-2.193 1.131-2.189 1.141.272.653 2.5-.495 2.5-.495-.128.745-2.528 1.193-2.872 1.633-2.872 3.673 0 .513-.907 1.22-2.015 1.572-1.108.351-1.756 1.057-1.441 1.567.316.51-.24.935-1.235.943-1.534.013-1.581.163-.309.985s1.225.972-.309.985c-.995.008-1.566.408-1.269.889s-.549 1.692-1.881 2.692-2.228 2.131-1.992 2.513c.236.381-.512.939-1.661 1.24s-1.81.998-1.47 1.549c.341.552-.626 2.252-2.149 3.78-1.523 1.527-2.656 3.131-2.519 3.564.138.433-.227.788-.809.788s-.781.45-.441 1c.343.555-.409 1.007-1.691 1.015-1.709.012-1.95.243-.927.891 1.08.684.9 1.028-.825 1.576-1.214.385-1.957.951-1.651 1.258.307.306-.376 1.366-1.516 2.355-1.141.99-1.781 2.273-1.423 2.852.839 1.357-.05 1.335-2.783-.069-1.201-.618-1.734-.674-1.184-.125 1.268 1.266 16.858 8.247 18.417 8.247.641 0 4.094.946 7.675 2.103s7.388 1.874 8.461 1.594c1.072-.281 1.715-.131 1.429.332-1.67 2.703 40.037 2.367 49.018-.395 2.75-.845 7.25-2.166 10-2.934 14.925-4.17 37.881-17.975 49.876-29.993 12.083-12.107 22.654-28.46 28.901-44.707 7.344-19.102 9.37-47.197 4.903-68-2.565-11.948-9.237-29.503-12.583-33.112-1.238-1.335-2.114-2.868-1.947-3.408.166-.539-.626-2.105-1.76-3.48-1.135-1.375-1.73-1.868-1.322-1.095q.739 1.402-.43.68c-.644-.398-.922-1.125-.618-1.617.732-1.185-4.22-8.968-5.707-8.968-.639 0-.071 1.234 1.263 2.743m-78.111 18.761c3.555 1.32 6.624 2.24 6.819 2.046.47-.471-10.518-4.565-12.072-4.498-.666.029 1.697 1.132 5.253 2.452M583 516.436c-3.025 2.431-6.785 6.14-8.356 8.242-2.725 3.646-2.655 3.615 1.515-.678 2.404-2.475 6.39-6.179 8.856-8.23s4.26-3.736 3.985-3.743-2.975 1.977-6 4.409m90.026 18.131c1.524 4.011 3.089 6.651 3.625 6.116.52-.521-3.378-8.683-4.147-8.683-.25 0-.015 1.155.522 2.567m-174.996 7.257c-.645 3.825-.988 8.467-.762 10.315.391 3.188.42 3.151.572-.705.088-2.237.641-6.668 1.229-9.848s.858-5.992.601-6.249-.995 2.662-1.64 6.487m63.313 20.676c.003 4.4.179 6.076.39 3.724s.209-5.952-.006-8-.388-.124-.384 4.276m-64.225 11.583c.065 1.879.485 4.767.933 6.417.536 1.973.623.945.257-3-.615-6.613-1.376-8.798-1.19-3.417m65.048-1.583c-.013 2.129 2.565 10.692 2.71 9 .047-.55-.541-3.25-1.306-6s-1.397-4.1-1.404-3M573 597.556c0 1.037 10.971 11.987 14.5 14.472 1.1.775-1.044-1.436-4.765-4.912s-7.433-7.275-8.25-8.441-1.485-1.669-1.485-1.119" fill="#236b1c" fill-rule="evenodd"/></svg>