<svg xmlns="http://www.w3.org/2000/svg" width="1000" height="1000" viewBox="0 0 1000 1000" version="1.1"><path d="M 604 439.677 C 574.226 444.493, 550.742 456.792, 530.500 478.170 C 508.937 500.944, 497.708 529.477, 497.709 561.500 C 497.709 581.916, 500.834 595.438, 509.957 614.500 C 520.441 636.407, 536.107 653.513, 557.151 666.032 C 565.509 671.004, 567.686 671.919, 566.467 669.947 C 566.109 669.368, 566.749 668.085, 567.890 667.095 C 569.030 666.106, 569.713 665.046, 569.406 664.740 C 569.100 664.433, 569.843 663.867, 571.057 663.482 C 572.782 662.934, 572.962 662.590, 571.882 661.906 C 570.859 661.258, 571.100 661.027, 572.809 661.015 C 574.091 661.007, 574.843 660.555, 574.500 660 C 574.160 659.450, 574.359 659, 574.941 659 C 575.523 659, 575.888 658.645, 575.750 658.212 C 575.613 657.779, 576.746 656.175, 578.269 654.648 C 579.792 653.120, 580.759 651.420, 580.418 650.868 C 580.078 650.317, 580.739 649.620, 581.888 649.319 C 583.037 649.018, 583.785 648.460, 583.549 648.079 C 583.313 647.697, 584.209 646.567, 585.541 645.566 C 586.873 644.566, 587.719 643.355, 587.422 642.874 C 587.125 642.393, 587.696 641.993, 588.691 641.985 C 590.225 641.972, 590.272 641.822, 589 641 C 587.728 640.178, 587.775 640.028, 589.309 640.015 C 590.304 640.007, 590.860 639.582, 590.544 639.072 C 590.229 638.562, 590.877 637.856, 591.985 637.505 C 593.093 637.153, 594 636.446, 594 635.933 C 594 633.893, 594.344 633.453, 596.872 632.260 C 599.500 631.020, 599.500 631.020, 597 631.515 C 594.539 632.003, 594.535 631.993, 596.728 630.862 C 597.953 630.231, 599.214 628.901, 599.529 627.908 C 599.844 626.915, 601.039 625.805, 602.183 625.442 C 603.742 624.947, 603.935 624.578, 602.951 623.970 C 602.077 623.429, 602.938 622.915, 605.531 622.428 L 609.423 621.698 605.462 620.524 C 595.372 617.534, 587.540 612.737, 579.463 604.598 C 570.279 595.344, 565.907 587.867, 562.975 576.404 C 560.473 566.620, 560.472 558.384, 562.972 548.609 C 568.125 528.461, 582.300 512.757, 601.568 505.850 C 608.770 503.268, 624.761 502.282, 633.500 503.880 C 636.800 504.484, 643.286 506.841, 647.914 509.119 C 658.325 514.242, 667.900 523.419, 673.975 534.097 C 676.292 538.169, 677.862 540.600, 677.465 539.500 C 675.714 534.653, 675.837 533.379, 678.170 532.158 C 679.451 531.487, 679.689 531.172, 678.698 531.458 C 677.658 531.758, 677.154 531.559, 677.507 530.989 C 677.843 530.445, 678.766 530, 679.559 530 C 680.352 530, 680.947 529.663, 680.882 529.250 C 680.555 527.185, 681.185 526.076, 683.015 525.495 C 684.123 525.144, 684.771 524.438, 684.456 523.928 C 684.140 523.418, 684.696 522.993, 685.691 522.985 C 687.225 522.972, 687.272 522.822, 686 522 C 684.718 521.172, 684.754 521.028, 686.250 521.015 C 687.212 521.007, 687.887 520.619, 687.750 520.153 C 687.612 519.687, 689.010 517.887, 690.856 516.153 C 692.755 514.369, 693.623 512.965, 692.856 512.919 C 692.110 512.874, 692.850 512.219, 694.500 511.464 C 696.150 510.708, 696.905 510.070, 696.179 510.045 C 695.452 510.020, 696.528 508.425, 698.569 506.500 C 700.610 504.575, 701.735 503, 701.068 503 C 700.270 503, 700.391 502.467, 701.421 501.436 C 702.281 500.576, 703.508 500.196, 704.147 500.591 C 704.836 501.017, 705.040 500.874, 704.648 500.240 C 704.285 499.652, 704.407 499.020, 704.919 498.835 C 705.431 498.651, 705.996 497.828, 706.175 497.006 C 706.354 496.184, 707.625 494.939, 709 494.241 C 710.523 493.466, 710.719 493.195, 709.500 493.547 C 707.648 494.081, 707.666 493.968, 709.750 492.023 C 710.987 490.867, 712 489.520, 712 489.028 C 712 487.085, 716.167 486.840, 718.274 488.660 C 719.446 489.672, 717.501 486.944, 713.952 482.598 C 695.964 460.567, 669.865 445.649, 640.290 440.491 C 632.487 439.131, 610.437 438.636, 604 439.677" stroke="none" fill="#071907" fill-rule="evenodd"/><path d="M 102.500 37.779 C 93.505 38.317, 77.651 41.832, 70.050 44.973 C 61.918 48.333, 50.953 54.222, 47.614 57.023 C 46.451 57.998, 42.637 61.150, 39.137 64.028 C 31.436 70.362, 20.883 83.518, 15.656 93.304 C 11.401 101.268, 5.600 118.056, 4.071 126.829 C 2.817 134.024, 2.811 151.625, 4.060 159.688 C 6.024 172.367, 14.249 193.248, 20.602 201.683 C 21.921 203.434, 23 205.150, 23 205.496 C 23 206.254, 42.301 225.490, 46.519 228.936 C 52.616 233.917, 68.943 241.993, 79.260 245.131 C 85.362 246.987, 100.498 248.964, 108.500 248.950 C 118.871 248.932, 134.037 246.682, 141 244.127 C 144.025 243.017, 148.454 241.397, 150.843 240.527 C 153.232 239.658, 156.823 237.833, 158.825 236.473 C 160.827 235.113, 162.841 234, 163.302 234 C 164.504 234, 172.605 228.310, 175.877 225.168 C 177.405 223.701, 180.983 220.344, 183.828 217.710 C 186.672 215.075, 189 212.599, 189 212.207 C 189 211.814, 190.312 210.255, 191.915 208.742 C 195.261 205.585, 202.528 193.297, 206.252 184.500 C 220.092 151.810, 216.894 116.546, 197.227 85 C 192.826 77.942, 172.767 58.090, 166.396 54.487 C 163.703 52.964, 159.822 50.657, 157.771 49.359 C 155.721 48.062, 153.597 47, 153.051 47 C 152.506 47, 149.672 45.908, 146.753 44.573 C 137.822 40.488, 115.216 37.017, 102.500 37.779 M 596 185.076 C 588.025 185.496, 576.325 186.777, 570 187.923 C 563.675 189.070, 556.700 190.252, 554.500 190.551 C 547.702 191.475, 524.952 197.104, 515.800 200.127 C 511.015 201.707, 506.498 203, 505.762 203 C 505.026 203, 500.634 204.575, 496 206.500 C 491.366 208.425, 487.234 210, 486.817 210 C 486.400 210, 483.683 211.069, 480.780 212.375 C 477.876 213.681, 471.225 216.652, 466 218.977 C 454.509 224.090, 438.687 232.427, 429 238.473 C 427.075 239.674, 422.575 242.392, 419 244.511 C 415.425 246.631, 412.275 248.638, 412 248.971 C 411.725 249.305, 407.900 252.003, 403.500 254.967 C 399.100 257.931, 393.475 262.043, 391 264.104 C 388.525 266.165, 382.675 270.901, 378 274.629 C 359.781 289.153, 343.293 305.879, 327.770 325.582 C 324.302 329.984, 320.453 334.671, 319.217 335.998 C 317.981 337.325, 314.422 342.255, 311.309 346.955 C 308.195 351.655, 305.277 355.650, 304.824 355.833 C 304.371 356.017, 304 356.557, 304 357.033 C 304 357.510, 302.650 359.900, 301 362.345 C 299.350 364.790, 298 367.132, 298 367.551 C 298 367.969, 296.904 369.748, 295.564 371.505 C 292.186 375.934, 273 414.501, 273 416.863 C 273 417.432, 271.470 421.858, 269.601 426.699 C 264.594 439.664, 261.875 447.818, 260.497 454 C 259.822 457.025, 258.070 463.889, 256.603 469.253 C 255.136 474.617, 253.736 480.917, 253.492 483.253 C 253.248 485.589, 251.906 494.700, 250.509 503.500 C 247.979 519.438, 246.787 535.139, 245.005 576 C 244.490 587.825, 244.053 674.119, 244.034 767.765 L 244 938.030 273.250 937.765 L 302.500 937.500 303.064 744.500 C 303.473 604.563, 303.957 548.613, 304.824 541 C 305.482 535.225, 306.639 525.550, 307.394 519.500 C 308.149 513.450, 308.791 507.375, 308.820 506 C 308.974 498.837, 319.759 458.428, 325.235 444.500 C 330.782 430.390, 339.006 413.134, 345.120 402.774 C 350.531 393.606, 360.205 378.589, 361.401 377.500 C 362.006 376.950, 366.397 371.325, 371.161 365 C 387.093 343.844, 405.360 326.142, 430.694 307.309 C 444.908 296.741, 452.133 291.946, 464.500 284.871 C 470.653 281.351, 496.038 268.944, 501.500 266.786 C 511.119 262.987, 521.961 259, 522.671 259 C 523.095 259, 527.731 257.686, 532.971 256.079 C 562.377 247.066, 587.896 243.500, 623 243.500 C 664.232 243.500, 692.029 248.597, 734 263.852 C 745.643 268.084, 767.061 278.805, 785 289.380 C 792.586 293.852, 814.233 309.312, 821.490 315.441 C 831.066 323.527, 855.611 347.873, 861.813 355.434 C 864.941 359.248, 868.437 363.298, 869.581 364.434 C 872.347 367.179, 886 386.804, 886 388.035 C 886 388.566, 886.378 389, 886.841 389 C 887.304 389, 888.942 391.363, 890.483 394.250 C 892.023 397.137, 894.281 400.850, 895.500 402.500 C 898.142 406.074, 915.926 442.021, 916.483 444.912 C 916.696 446.019, 917.560 448.405, 918.403 450.213 C 920.236 454.147, 928.016 477.658, 928.425 480.500 C 928.583 481.600, 930.109 488.800, 931.815 496.500 C 937.570 522.472, 938.503 531.721, 938.470 562.500 C 938.438 593.185, 936.495 612.678, 931.541 632 C 930.202 637.225, 928.848 642.980, 928.532 644.788 C 927.855 648.665, 923.081 663.210, 918.779 674.500 C 912.186 691.803, 889.048 735.681, 885.908 736.833 C 885.409 737.017, 885 737.606, 885 738.142 C 885 738.678, 883.721 740.778, 882.158 742.809 C 880.595 744.839, 876.693 750.100, 873.487 754.500 C 866.017 764.753, 826.956 803.809, 816.500 811.480 C 812.100 814.709, 806.155 819.113, 803.288 821.267 C 795.973 826.765, 773.553 840.309, 763.500 845.302 C 761.300 846.395, 757.838 848.123, 755.808 849.141 C 729.729 862.223, 684.555 875.601, 658 878.108 C 638.058 879.990, 607.125 880.232, 589 878.648 C 554.651 875.647, 526.912 867.889, 496.763 852.852 C 489.208 849.083, 482.571 846, 482.013 846 C 481.350 846, 481 856.852, 481 877.381 C 481 908.763, 481 908.763, 484.267 911.255 C 492.556 917.577, 537.205 931.405, 557.992 934.088 C 561.572 934.550, 568.986 935.612, 574.469 936.447 C 624.259 944.036, 689.319 937.031, 740.500 918.570 C 745.450 916.784, 750.850 914.846, 752.500 914.263 C 763.434 910.400, 801.930 891.858, 810.113 886.513 C 812.650 884.856, 816.228 882.600, 818.065 881.500 C 819.901 880.400, 822.100 879.037, 822.951 878.472 C 853.657 858.088, 864.562 849.287, 887.972 826 C 905.589 808.475, 910.887 802.529, 920.939 789 C 924.821 783.775, 928.619 778.825, 929.378 778 C 930.138 777.175, 932.890 773.125, 935.493 769 C 938.097 764.875, 941.526 759.626, 943.113 757.337 C 944.701 755.047, 946 752.900, 946 752.567 C 946 752.233, 947.228 750.057, 948.729 747.730 C 950.229 745.404, 952.638 741.250, 954.081 738.500 C 961.521 724.326, 964.976 717.422, 964.987 716.708 C 964.994 716.273, 966.388 712.948, 968.084 709.320 C 969.780 705.692, 971.321 701.930, 971.508 700.960 C 971.695 699.990, 972.501 697.914, 973.300 696.348 C 977.884 687.357, 988.168 651.032, 991.941 630.500 C 997.174 602.024, 997.666 594.956, 997.231 554.500 C 996.889 522.710, 994.581 504.806, 986.793 473.500 C 982.961 458.100, 972.402 426.028, 968.026 416.500 C 965.197 410.341, 961.339 401.972, 959.038 397 C 957.892 394.525, 955.277 389.501, 953.227 385.836 C 951.177 382.171, 948.436 377.221, 947.136 374.836 C 945.835 372.451, 943.698 369.068, 942.386 367.317 C 941.074 365.566, 940 363.894, 940 363.602 C 940 363.309, 937.551 359.341, 934.558 354.785 C 915.905 326.387, 891.753 298.765, 866 276.377 C 855.924 267.618, 850.313 263.222, 832.500 250.131 C 830.300 248.515, 826.025 245.725, 823 243.932 C 819.975 242.139, 815.700 239.471, 813.500 238.002 C 806.672 233.445, 773.628 216.038, 771.753 216.011 C 771.342 216.005, 768.148 214.650, 764.656 213 C 761.164 211.350, 757.917 210, 757.441 210 C 756.965 210, 752.733 208.464, 748.038 206.586 C 735.114 201.418, 699.804 191, 695.214 191 C 693.963 191, 686.765 189.845, 679.219 188.433 C 658.560 184.567, 628.597 183.358, 596 185.076 M 600 261.134 C 594.225 261.605, 585.450 262.702, 580.500 263.572 C 575.550 264.442, 568.575 265.583, 565 266.107 C 554.436 267.656, 520.916 277.750, 510.220 282.604 C 507.317 283.922, 504.504 285, 503.971 285 C 503.437 285, 500.863 286.097, 498.251 287.437 C 495.638 288.777, 489.225 291.983, 484 294.562 C 478.775 297.141, 473.825 299.795, 473 300.460 C 472.175 301.125, 469.475 302.685, 467 303.927 C 464.525 305.169, 461.600 306.964, 460.500 307.915 C 459.400 308.867, 456.025 311.169, 453 313.031 C 446.776 316.862, 442.476 320.090, 428.398 331.500 C 414.388 342.855, 405.011 351.927, 394.804 364 C 389.922 369.775, 384.754 375.850, 383.321 377.500 C 381.888 379.150, 377.991 384.550, 374.660 389.500 C 371.330 394.450, 368.244 398.650, 367.803 398.833 C 367.361 399.017, 367 399.570, 367 400.064 C 367 400.557, 365.537 403.339, 363.750 406.244 C 358.289 415.122, 348 434.774, 348 436.327 C 348 436.639, 346.494 440.180, 344.653 444.197 C 340.752 452.709, 338.469 458.971, 335.976 468 C 334.989 471.575, 333.016 478.489, 331.590 483.365 C 330.164 488.241, 328.803 494.091, 328.565 496.365 C 328.327 498.639, 327.232 506.125, 326.133 513 C 325.034 519.875, 323.651 530.225, 323.061 536 C 320.953 556.608, 319.992 634.753, 319.996 785.250 L 320 938 352.930 938 L 385.859 938 386.315 759.750 C 386.702 608.654, 387.010 578.834, 388.339 564 C 389.201 554.375, 389.929 542, 389.957 536.500 C 390.010 526.124, 391.800 512.852, 394.543 502.500 C 395.417 499.200, 396.283 495.375, 396.467 494 C 396.651 492.625, 398.001 488.125, 399.468 484 C 400.935 479.875, 402.290 475.825, 402.479 475 C 402.777 473.696, 407.105 463.953, 411.586 454.500 C 412.998 451.521, 417.003 444.368, 420.616 438.374 C 425.559 430.173, 436.478 414.754, 437.667 414.298 C 438.400 414.016, 439 413.308, 439 412.724 C 439 412.140, 446.538 404.201, 455.750 395.081 C 479.355 371.714, 496.002 360.420, 529.500 345.046 C 536.996 341.605, 556.011 335.245, 564.238 333.426 C 584.730 328.896, 589.875 328.098, 606.232 326.913 C 621.717 325.791, 626.469 325.839, 643.732 327.291 C 668.611 329.384, 692.808 335.279, 710.772 343.622 C 714.771 345.480, 718.337 347, 718.696 347 C 719.613 347, 734.978 354.960, 738 357.001 C 739.375 357.930, 743.425 360.417, 747 362.527 C 750.575 364.638, 753.725 366.636, 754 366.966 C 754.275 367.297, 757.624 369.775, 761.443 372.473 C 780.383 385.851, 803.093 409.163, 816.024 428.500 C 817.863 431.250, 819.648 433.725, 819.990 434 C 821.912 435.546, 841 472.061, 841 474.192 C 841 474.728, 842.349 478.536, 843.998 482.655 C 845.647 486.773, 847.239 491.520, 847.536 493.203 C 847.832 494.886, 849.157 500.428, 850.479 505.518 C 851.802 510.607, 853.135 517.861, 853.443 521.636 C 853.750 525.411, 854.448 532.325, 854.993 537 C 856.260 547.858, 856.236 580.226, 854.955 590 C 854.414 594.125, 853.726 600.200, 853.426 603.500 C 853.126 606.800, 851.724 613.775, 850.312 619 C 848.899 624.225, 847.658 629.175, 847.555 630 C 847.249 632.433, 844.969 639.181, 842.913 643.739 C 841.861 646.071, 841 648.641, 841 649.450 C 841 653.375, 819.569 692.857, 816.908 693.833 C 816.409 694.017, 816 694.576, 816 695.075 C 816 697.052, 799.687 716.055, 789.882 725.500 C 778.558 736.407, 762.939 749.256, 753.500 755.429 C 750.200 757.587, 745.689 760.579, 743.475 762.077 C 739.062 765.064, 715.452 777.319, 707.500 780.751 C 687.628 789.327, 662.508 795.632, 642.500 797.065 C 604.419 799.793, 570.208 794.507, 537 780.767 C 521.845 774.496, 494.551 760.481, 487.307 755.250 C 480.696 750.476, 480.947 749.078, 481.238 789.147 L 481.500 825.295 501 835.238 C 521.851 845.871, 534.373 850.441, 557.500 855.859 C 605.237 867.041, 657.425 864.574, 708.500 848.719 C 715.650 846.500, 723.834 843.630, 726.686 842.342 C 729.538 841.054, 732.195 840, 732.589 840 C 735.956 840, 770.657 821.747, 784.045 812.934 C 811.196 795.061, 834.856 774.068, 852.156 752.500 C 856.568 747, 861.150 741.313, 862.339 739.863 C 864.937 736.693, 864.847 736.823, 873 724.506 C 881.757 711.276, 889.609 696.854, 898.127 678.355 C 900.618 672.944, 905.830 658.838, 907.679 652.500 C 908.482 649.750, 910.222 643.900, 911.547 639.500 C 913.728 632.259, 914.760 627.048, 919.573 599 C 920.375 594.325, 921.314 581.950, 921.660 571.500 C 922.355 550.460, 921.335 536.835, 917.428 515 C 916.100 507.575, 914.759 499.925, 914.450 498 C 913.777 493.807, 910.190 481.208, 905.768 467.500 C 896.905 440.025, 879.819 407.684, 860.631 382.064 C 855.097 374.674, 849.347 367.378, 847.855 365.852 C 846.363 364.325, 844.773 362.497, 844.321 361.788 C 841.932 358.040, 811.055 329.469, 802.911 323.471 C 797.706 319.637, 792.109 315.497, 790.473 314.271 C 785.955 310.883, 765.565 298.149, 763.404 297.365 C 762.357 296.985, 760.375 295.908, 759 294.971 C 757.625 294.034, 752.225 291.359, 747 289.027 C 741.775 286.695, 735.700 283.964, 733.500 282.959 C 722.971 278.146, 691.149 268.047, 682 266.613 C 680.075 266.312, 673.100 265.161, 666.500 264.055 C 642.756 260.077, 623.399 259.227, 600 261.134 M 32 617 L 32 942 64.500 942 L 97 942 97 617 L 97 292 64.500 292 L 32 292 32 617 M 116 617 L 116 942 148.500 942 L 181 942 181 617 L 181 292 148.500 292 L 116 292 116 617 M 616.776 438.733 C 619.128 438.945, 622.728 438.942, 624.776 438.727 C 626.824 438.512, 624.900 438.339, 620.500 438.343 C 616.100 438.346, 614.424 438.522, 616.776 438.733 M 532.978 474.750 L 524.500 483.500 533.250 475.022 C 538.063 470.359, 542 466.422, 542 466.272 C 542 465.544, 540.852 466.623, 532.978 474.750 M 718.076 487.743 C 720.088 490.020, 720.130 490.174, 718.322 488.653 C 716.168 486.841, 712 487.089, 712 489.028 C 712 489.520, 710.987 490.867, 709.750 492.023 C 707.666 493.968, 707.648 494.081, 709.500 493.547 C 710.719 493.195, 710.523 493.466, 709 494.241 C 707.625 494.939, 706.354 496.184, 706.175 497.006 C 705.996 497.828, 705.431 498.651, 704.919 498.835 C 704.407 499.020, 704.285 499.652, 704.648 500.240 C 705.040 500.874, 704.836 501.017, 704.147 500.591 C 703.508 500.196, 702.281 500.576, 701.421 501.436 C 700.391 502.467, 700.270 503, 701.068 503 C 701.735 503, 700.610 504.575, 698.569 506.500 C 696.528 508.425, 695.452 510.020, 696.179 510.045 C 696.905 510.070, 696.150 510.708, 694.500 511.464 C 692.850 512.219, 692.110 512.874, 692.856 512.919 C 693.623 512.965, 692.755 514.369, 690.856 516.153 C 689.010 517.887, 687.613 519.687, 687.750 520.153 C 687.888 520.619, 687.213 521.007, 686.250 521.015 C 684.754 521.028, 684.718 521.172, 686 522 C 687.272 522.822, 687.225 522.972, 685.691 522.985 C 684.696 522.993, 684.140 523.418, 684.456 523.928 C 684.771 524.438, 684.123 525.144, 683.015 525.495 C 681.185 526.076, 680.555 527.185, 680.882 529.250 C 680.947 529.663, 680.352 530, 679.559 530 C 678.766 530, 677.843 530.445, 677.507 530.989 C 677.154 531.559, 677.658 531.758, 678.698 531.458 C 679.689 531.172, 679.451 531.487, 678.170 532.158 C 676.320 533.126, 675.972 533.906, 676.484 535.939 C 677.181 538.710, 677.598 541.890, 677.844 546.309 C 677.930 547.854, 678.337 548.914, 678.750 548.665 C 680.072 547.866, 680.188 564.228, 678.918 572.500 C 676.199 590.217, 664.517 606.687, 649.316 614.233 C 645.365 616.194, 642.427 618.093, 642.786 618.452 C 643.145 618.812, 642.591 618.780, 641.555 618.383 C 640.481 617.970, 639.916 618.055, 640.240 618.580 C 640.553 619.086, 639.614 619.559, 638.155 619.632 C 636.695 619.705, 632.462 620.359, 628.748 621.086 C 619.593 622.877, 608.751 621.279, 597.762 616.516 C 593.253 614.562, 589.999 613.395, 590.532 613.923 C 591.064 614.450, 594.543 616.178, 598.263 617.761 C 601.982 619.345, 604.779 620.887, 604.478 621.189 C 604.177 621.490, 605.184 621.568, 606.715 621.362 C 608.698 621.096, 608.348 621.392, 605.500 622.390 C 603.300 623.160, 602.175 623.868, 603 623.963 C 604.011 624.079, 603.773 624.486, 602.272 625.211 C 601.047 625.802, 599.799 627.057, 599.500 628 C 599.201 628.943, 597.953 630.231, 596.728 630.862 C 594.535 631.993, 594.539 632.003, 597 631.515 C 599.500 631.020, 599.500 631.020, 596.872 632.260 C 594.344 633.453, 594 633.893, 594 635.933 C 594 636.446, 593.093 637.153, 591.985 637.505 C 590.877 637.856, 590.229 638.562, 590.544 639.072 C 590.860 639.582, 590.304 640.007, 589.309 640.015 C 587.775 640.028, 587.728 640.178, 589 641 C 590.272 641.822, 590.225 641.972, 588.691 641.985 C 587.696 641.993, 587.125 642.393, 587.422 642.874 C 587.719 643.355, 586.873 644.566, 585.541 645.566 C 584.209 646.567, 583.313 647.697, 583.549 648.079 C 583.785 648.460, 583.037 649.018, 581.888 649.319 C 580.739 649.620, 580.078 650.317, 580.418 650.868 C 580.759 651.420, 579.792 653.120, 578.269 654.648 C 576.746 656.175, 575.613 657.779, 575.750 658.212 C 575.888 658.645, 575.523 659, 574.941 659 C 574.359 659, 574.160 659.450, 574.500 660 C 574.843 660.555, 574.091 661.007, 572.809 661.015 C 571.100 661.027, 570.859 661.258, 571.882 661.906 C 572.962 662.590, 572.782 662.934, 571.057 663.482 C 569.843 663.867, 569.100 664.433, 569.406 664.740 C 569.713 665.046, 569.030 666.106, 567.890 667.095 C 566.749 668.085, 566.109 669.368, 566.467 669.947 C 567.306 671.304, 566.417 671.282, 563.684 669.878 C 562.483 669.260, 561.950 669.204, 562.500 669.753 C 563.768 671.019, 579.358 678, 580.917 678 C 581.558 678, 585.011 678.946, 588.592 680.103 C 592.173 681.260, 595.980 681.977, 597.053 681.697 C 598.125 681.416, 598.768 681.566, 598.482 682.029 C 596.812 684.732, 638.519 684.396, 647.500 681.634 C 650.250 680.789, 654.750 679.468, 657.500 678.700 C 672.425 674.530, 695.381 660.725, 707.376 648.707 C 719.459 636.600, 730.030 620.247, 736.277 604 C 743.621 584.898, 745.647 556.803, 741.180 536 C 738.615 524.052, 731.943 506.497, 728.597 502.888 C 727.359 501.553, 726.483 500.020, 726.650 499.480 C 726.816 498.941, 726.024 497.375, 724.890 496 C 723.755 494.625, 723.160 494.132, 723.568 494.905 C 724.061 495.839, 723.917 496.067, 723.138 495.585 C 722.494 495.187, 722.216 494.460, 722.520 493.968 C 723.252 492.783, 718.300 485, 716.813 485 C 716.174 485, 716.742 486.234, 718.076 487.743 M 639.965 506.504 C 643.520 507.824, 646.589 508.744, 646.784 508.550 C 647.254 508.079, 636.266 503.985, 634.712 504.052 C 634.046 504.081, 636.409 505.184, 639.965 506.504 M 583 516.436 C 579.975 518.867, 576.215 522.576, 574.644 524.678 C 571.919 528.324, 571.989 528.293, 576.159 524 C 578.563 521.525, 582.549 517.821, 585.015 515.770 C 587.482 513.718, 589.275 512.034, 589 512.027 C 588.725 512.020, 586.025 514.004, 583 516.436 M 673.026 534.567 C 674.550 538.578, 676.115 541.218, 676.651 540.683 C 677.171 540.162, 673.273 532, 672.504 532 C 672.254 532, 672.489 533.155, 673.026 534.567 M 498.030 541.824 C 497.385 545.649, 497.042 550.291, 497.268 552.139 C 497.659 555.327, 497.688 555.290, 497.840 551.434 C 497.928 549.197, 498.481 544.766, 499.069 541.586 C 499.657 538.406, 499.927 535.594, 499.670 535.337 C 499.413 535.080, 498.675 537.999, 498.030 541.824 M 561.343 562.500 C 561.346 566.900, 561.522 568.576, 561.733 566.224 C 561.945 563.872, 561.942 560.272, 561.727 558.224 C 561.512 556.176, 561.339 558.100, 561.343 562.500 M 497.118 574.083 C 497.183 575.962, 497.603 578.850, 498.051 580.500 C 498.587 582.473, 498.674 581.445, 498.308 577.500 C 497.693 570.887, 496.932 568.702, 497.118 574.083 M 562.166 572.500 C 562.153 574.629, 564.731 583.192, 564.876 581.500 C 564.923 580.950, 564.335 578.250, 563.570 575.500 C 562.805 572.750, 562.173 571.400, 562.166 572.500 M 573 597.556 C 573 598.593, 583.971 609.543, 587.500 612.028 C 588.600 612.803, 586.456 610.592, 582.735 607.116 C 579.014 603.640, 575.302 599.841, 574.485 598.675 C 573.668 597.509, 573 597.006, 573 597.556" stroke="none" fill="#236b1c" fill-rule="evenodd"/></svg>